<svg xmlns="http://www.w3.org/2000/svg" xmlns:xlink="http://www.w3.org/1999/xlink" width="500" zoomAndPan="magnify" viewBox="0 0 375 374.999991" height="500" preserveAspectRatio="xMidYMid meet" version="1.0"><defs><clipPath id="0defc3cd6f"><path d="M 20.714844 20.714844 L 354.464844 20.714844 L 354.464844 354.464844 L 20.714844 354.464844 Z M 20.714844 20.714844 " clip-rule="nonzero"/></clipPath></defs><g clip-path="url(#0defc3cd6f)"><path fill="#f9f9f9" d="M 341.183594 122.558594 C 332.785156 102.71875 320.75 84.863281 305.476562 69.519531 C 290.132812 54.179688 272.34375 42.210938 252.4375 33.8125 C 231.871094 25.148438 210.046875 20.714844 187.496094 20.714844 C 164.949219 20.714844 143.125 25.148438 122.558594 33.8125 C 102.71875 42.210938 84.863281 54.246094 69.519531 69.519531 C 54.179688 84.863281 42.210938 102.652344 33.8125 122.558594 C 25.148438 143.125 20.714844 165.011719 20.714844 187.496094 C 20.714844 209.984375 25.148438 231.871094 33.8125 252.4375 C 42.210938 272.277344 54.246094 290.132812 69.519531 305.476562 C 84.863281 320.816406 102.652344 332.785156 122.558594 341.183594 C 143.125 349.914062 164.949219 354.277344 187.496094 354.277344 C 210.046875 354.277344 231.871094 349.847656 252.4375 341.183594 C 272.277344 332.785156 290.132812 320.75 305.476562 305.476562 C 320.816406 290.132812 332.785156 272.34375 341.183594 252.4375 C 349.914062 231.871094 354.277344 210.046875 354.277344 187.496094 C 354.277344 164.949219 349.847656 143.125 341.183594 122.558594 Z M 187.496094 349.121094 C 98.421875 349.121094 25.941406 276.640625 25.941406 187.5625 C 25.941406 98.484375 98.421875 25.941406 187.496094 25.941406 C 276.574219 25.941406 349.054688 98.421875 349.054688 187.496094 C 349.054688 276.574219 276.574219 349.054688 187.496094 349.054688 Z M 187.496094 349.121094 " fill-opacity="1" fill-rule="nonzero"/></g><path fill="#0015b9" d="M 75.140625 187.496094 C 75.140625 230.351562 99.28125 267.648438 134.660156 286.628906 L 134.660156 88.367188 C 99.28125 107.28125 75.140625 144.644531 75.140625 187.496094 Z M 75.140625 187.496094 " fill-opacity="1" fill-rule="nonzero"/><path fill="#f9f9f9" d="M 187.496094 75.140625 C 168.386719 75.140625 150.398438 79.902344 134.660156 88.367188 L 134.660156 286.5625 C 150.398438 295.027344 168.386719 299.789062 187.496094 299.789062 C 206.609375 299.789062 224.199219 295.09375 239.808594 286.824219 L 239.808594 88.105469 C 224.199219 79.835938 206.34375 75.140625 187.496094 75.140625 Z M 187.496094 75.140625 " fill-opacity="1" fill-rule="nonzero"/><path fill="#ee1e11" d="M 299.855469 187.496094 C 299.855469 144.445312 275.519531 106.949219 239.808594 88.105469 L 239.808594 286.890625 C 275.453125 268.046875 299.855469 230.550781 299.855469 187.496094 Z M 299.855469 187.496094 " fill-opacity="1" fill-rule="nonzero"/><path fill="#f9f9f9" d="M 61.320312 104.371094 L 67.339844 111.316406 C 69.390625 113.5625 71.902344 116.144531 74.085938 118.390625 L 74.085938 118.523438 C 71.109375 117.398438 67.867188 116.40625 64.824219 115.546875 L 55.964844 113.167969 L 51.863281 119.914062 L 73.488281 135.054688 L 76.332031 130.359375 L 68.066406 124.738281 C 65.355469 122.886719 61.980469 120.640625 59.007812 118.65625 C 62.246094 119.847656 65.949219 121.035156 68.992188 121.898438 L 79.175781 124.804688 L 81.621094 120.839844 L 74.480469 112.769531 C 72.363281 110.324219 69.71875 107.414062 67.273438 104.96875 L 67.273438 104.835938 C 70.578125 106.820312 73.953125 108.738281 76.730469 110.257812 L 85.523438 115.152344 L 88.566406 110.191406 L 65.355469 97.757812 Z M 61.320312 104.371094 " fill-opacity="1" fill-rule="nonzero"/><path fill="#f9f9f9" d="M 76.265625 85.328125 L 89.558594 109.464844 L 93.855469 105.035156 L 90.285156 99.015625 L 95.511719 93.59375 L 101.792969 96.832031 L 106.222656 92.269531 L 81.621094 79.769531 L 76.199219 85.390625 Z M 82.019531 85.722656 C 83.410156 86.515625 85.128906 87.574219 86.582031 88.300781 L 91.742188 91.011719 L 87.707031 95.179688 L 84.796875 90.152344 C 84.003906 88.765625 82.878906 87.113281 82.019531 85.722656 Z M 82.019531 85.722656 " fill-opacity="1" fill-rule="nonzero"/><path fill="#f9f9f9" d="M 110.257812 60.59375 C 107.082031 60.460938 103.910156 61.519531 99.742188 64.363281 C 97.230469 66.082031 94.980469 67.800781 93.394531 69.324219 L 107.941406 90.683594 C 109.265625 90.023438 111.183594 88.964844 113.761719 87.179688 C 117.996094 84.269531 120.90625 80.960938 121.898438 77.523438 C 122.757812 74.347656 122.359375 70.378906 119.515625 66.28125 C 116.871094 62.445312 113.628906 60.726562 110.257812 60.59375 Z M 112.242188 82.613281 C 111.644531 83.011719 110.917969 83.476562 110.457031 83.671875 L 100.734375 69.453125 C 101.066406 69.058594 101.726562 68.464844 102.851562 67.734375 C 107.082031 64.824219 111.382812 65.421875 114.421875 69.984375 C 117.996094 75.207031 116.738281 79.640625 112.242188 82.613281 Z M 112.242188 82.613281 " fill-opacity="1" fill-rule="nonzero"/><path fill="#f9f9f9" d="M 133.402344 69.785156 L 130.890625 64.097656 L 139.75 60.128906 L 137.769531 55.699219 L 128.90625 59.667969 L 126.722656 54.640625 L 136.113281 50.476562 L 134.128906 46.042969 L 119.25 52.589844 L 129.898438 76.664062 L 145.242188 69.851562 L 143.324219 65.421875 Z M 133.402344 69.785156 " fill-opacity="1" fill-rule="nonzero"/><path fill="#f9f9f9" d="M 149.542969 41.253906 L 155.328125 39.863281 L 161.472656 65.457031 L 155.6875 66.847656 Z M 149.542969 41.253906 " fill-opacity="1" fill-rule="nonzero"/><path fill="#f9f9f9" d="M 179.429688 36.589844 L 180.089844 44.257812 C 180.421875 48.160156 180.886719 51.730469 181.613281 55.171875 L 181.480469 55.171875 C 180.023438 52.328125 178.171875 49.21875 176.386719 46.574219 L 170.105469 37.449219 L 163.160156 38.042969 L 165.542969 64.230469 L 170.964844 63.769531 L 170.238281 55.898438 C 169.839844 51.601562 169.445312 47.960938 168.980469 44.457031 L 169.113281 44.457031 C 170.699219 47.367188 172.683594 50.609375 174.46875 53.253906 L 180.949219 62.84375 L 187.167969 62.3125 L 184.785156 36.125 L 179.363281 36.589844 Z M 179.429688 36.589844 " fill-opacity="1" fill-rule="nonzero"/><path fill="#f9f9f9" d="M 217.917969 44.324219 L 218.710938 39.496094 L 202.773438 37.050781 L 198.742188 63.105469 L 204.691406 63.964844 L 206.277344 53.515625 L 215.605469 54.972656 L 216.398438 50.210938 L 207.007812 48.757812 L 207.933594 42.804688 Z M 217.917969 44.324219 " fill-opacity="1" fill-rule="nonzero"/><path fill="#f9f9f9" d="M 235.375 59.074219 L 235.375 58.941406 C 237.824219 58.875 240.800781 57.417969 241.855469 54.246094 C 242.652344 51.929688 242.386719 49.945312 241.261719 48.226562 C 239.941406 46.242188 237.558594 44.789062 233.855469 43.597656 C 230.878906 42.605469 228.101562 41.945312 226.183594 41.613281 L 218.050781 66.28125 L 223.671875 68.132812 L 226.910156 58.277344 L 228.632812 58.875 C 230.945312 59.667969 231.738281 60.859375 231.34375 64.230469 C 231.078125 67.539062 231.011719 69.785156 231.144531 70.644531 L 236.898438 72.5625 C 236.765625 71.4375 237.03125 67.933594 237.160156 64.824219 C 237.292969 62.3125 236.898438 60.328125 235.375 59.074219 Z M 230.484375 54.972656 L 228.234375 54.246094 L 230.550781 47.367188 C 231.011719 47.367188 231.804688 47.566406 233.195312 48.027344 C 235.773438 48.953125 236.964844 50.609375 236.171875 52.855469 C 235.441406 55.039062 233.328125 55.898438 230.484375 54.972656 Z M 230.484375 54.972656 " fill-opacity="1" fill-rule="nonzero"/><path fill="#f9f9f9" d="M 257.265625 53.515625 L 237.492188 72.628906 L 242.914062 75.605469 L 247.808594 70.578125 L 254.421875 74.214844 L 252.902344 81.09375 L 258.523438 84.203125 L 264.144531 57.222656 L 257.332031 53.453125 Z M 257.066406 64.296875 L 255.8125 69.984375 L 250.71875 67.140625 L 254.820312 63.039062 C 255.941406 61.917969 257.265625 60.394531 258.324219 59.203125 L 258.390625 59.203125 C 257.992188 60.792969 257.464844 62.710938 257.066406 64.296875 Z M 257.066406 64.296875 " fill-opacity="1" fill-rule="nonzero"/><path fill="#f9f9f9" d="M 289.800781 76.265625 L 284.777344 82.085938 C 282.195312 85.0625 280.015625 87.839844 278.03125 90.75 L 277.964844 90.75 C 279.023438 87.640625 279.949219 84.136719 280.542969 81.027344 L 282.660156 70.117188 L 277.371094 65.621094 L 260.242188 85.589844 L 264.40625 89.160156 L 269.566406 83.144531 C 272.34375 79.902344 274.722656 76.992188 276.839844 74.28125 L 276.972656 74.28125 C 275.914062 77.523438 275.054688 81.226562 274.394531 84.335938 L 272.078125 95.707031 L 276.839844 99.742188 L 293.96875 79.769531 L 289.800781 76.199219 Z M 289.800781 76.265625 " fill-opacity="1" fill-rule="nonzero"/><path fill="#f9f9f9" d="M 291.390625 110.589844 C 288.082031 106.421875 288.742188 101.925781 292.84375 98.617188 C 297.40625 94.980469 301.96875 96.105469 304.878906 99.808594 C 306.203125 101.460938 306.863281 103.050781 307.195312 104.304688 L 311.625 102.320312 C 311.425781 101.132812 310.433594 98.949219 308.515625 96.503906 C 303.558594 90.285156 295.6875 88.367188 288.613281 93.921875 C 282.726562 98.550781 281.203125 105.761719 286.890625 112.902344 C 288.875 115.414062 290.859375 117.003906 291.984375 117.464844 L 295.09375 113.894531 C 293.96875 113.300781 292.445312 111.976562 291.324219 110.523438 Z M 291.390625 110.589844 " fill-opacity="1" fill-rule="nonzero"/><path fill="#f9f9f9" d="M 315.921875 107.746094 L 292.910156 120.441406 L 300.976562 135.1875 L 305.277344 132.808594 L 300.050781 123.351562 L 305.542969 120.308594 L 310.171875 128.839844 L 314.46875 126.460938 L 309.773438 117.996094 L 314.535156 115.347656 L 319.496094 124.34375 L 323.792969 122.027344 Z M 315.921875 107.746094 " fill-opacity="1" fill-rule="nonzero"/><path fill="#f9f9f9" d="M 339.929688 181.679688 L 327.828125 181.015625 L 323.460938 169.707031 L 319.097656 181.015625 L 306.996094 181.679688 L 316.386719 189.285156 L 313.277344 200.988281 L 323.460938 194.441406 L 333.648438 200.988281 L 330.539062 189.285156 Z M 339.929688 181.679688 " fill-opacity="1" fill-rule="nonzero"/><path fill="#f9f9f9" d="M 314.734375 161.640625 L 320.617188 155.292969 L 328.820312 158.070312 L 324.585938 150.464844 L 329.746094 143.585938 L 321.28125 145.242188 L 316.253906 138.164062 L 315.261719 146.761719 L 306.996094 149.339844 L 314.800781 152.976562 Z M 314.734375 161.640625 " fill-opacity="1" fill-rule="nonzero"/><path fill="#f9f9f9" d="M 323.394531 213.355469 L 316.785156 220.496094 L 307.589844 217.390625 L 312.285156 225.917969 L 306.46875 233.722656 L 316.054688 231.804688 L 321.675781 239.742188 L 322.867188 230.085938 L 332.125 227.175781 L 323.332031 223.078125 Z M 323.394531 213.355469 " fill-opacity="1" fill-rule="nonzero"/><path fill="#f9f9f9" d="M 51.070312 194.640625 L 61.253906 201.1875 L 58.148438 189.480469 L 67.539062 181.8125 L 55.433594 181.148438 L 51.070312 169.839844 L 46.707031 181.148438 L 34.605469 181.8125 L 43.996094 189.480469 L 40.886719 201.1875 Z M 51.070312 194.640625 " fill-opacity="1" fill-rule="nonzero"/><path fill="#f9f9f9" d="M 45.78125 158.203125 L 53.914062 155.425781 L 59.800781 161.773438 L 59.734375 153.109375 L 67.539062 149.472656 L 59.335938 146.894531 L 58.277344 138.363281 L 53.253906 145.371094 L 44.789062 143.71875 L 49.945312 150.664062 Z M 45.78125 158.203125 " fill-opacity="1" fill-rule="nonzero"/><path fill="#f9f9f9" d="M 62.246094 226.050781 L 67.007812 217.585938 L 57.75 220.695312 L 51.136719 213.554688 L 51.269531 223.273438 L 42.40625 227.375 L 51.730469 230.285156 L 52.855469 239.941406 L 58.542969 232.003906 L 68.066406 233.855469 Z M 62.246094 226.050781 " fill-opacity="1" fill-rule="nonzero"/><path fill="#f9f9f9" d="M 87.179688 259.316406 L 78.382812 261.894531 C 75.472656 262.820312 72.101562 264.011719 69.125 265.136719 C 71.371094 262.820312 73.621094 260.308594 75.671875 257.925781 L 81.492188 250.851562 L 77.058594 244.304688 L 54.3125 257.664062 L 57.417969 262.226562 L 65.949219 257 C 68.792969 255.347656 72.234375 253.164062 75.273438 251.3125 C 72.761719 253.828125 70.183594 256.671875 68.066406 259.117188 L 61.1875 267.121094 L 63.769531 270.953125 L 74.085938 267.847656 C 77.191406 266.988281 80.894531 265.796875 84.203125 264.539062 C 81.027344 266.789062 77.917969 269.035156 75.339844 270.886719 L 67.207031 276.839844 L 70.445312 281.667969 L 91.476562 265.730469 L 87.113281 259.316406 Z M 87.179688 259.316406 " fill-opacity="1" fill-rule="nonzero"/><path fill="#f9f9f9" d="M 98.550781 273.402344 L 74.019531 285.835938 L 78.316406 290.265625 L 84.464844 286.957031 L 89.691406 292.382812 L 86.253906 298.53125 L 90.683594 303.160156 L 104.042969 279.023438 L 98.617188 273.402344 Z M 95.179688 283.652344 L 92.269531 288.679688 L 88.234375 284.511719 L 93.328125 281.800781 C 94.71875 281.074219 96.4375 279.949219 97.824219 279.15625 C 96.964844 280.542969 95.90625 282.261719 95.113281 283.652344 Z M 95.179688 283.652344 " fill-opacity="1" fill-rule="nonzero"/><path fill="#f9f9f9" d="M 124.738281 299.191406 C 123.8125 296.152344 121.699219 293.570312 117.597656 290.660156 C 115.152344 288.941406 112.703125 287.421875 110.71875 286.429688 L 95.707031 307.457031 C 96.832031 308.449219 98.484375 309.90625 101 311.691406 C 105.164062 314.667969 109.265625 316.253906 112.835938 315.988281 C 116.144531 315.726562 119.648438 313.941406 122.625 309.839844 C 125.335938 306.070312 125.796875 302.433594 124.738281 299.191406 Z M 117.332031 306.335938 C 113.695312 311.425781 109.066406 311.824219 104.703125 308.648438 C 104.105469 308.1875 103.445312 307.722656 103.117188 307.328125 L 113.101562 293.308594 C 113.5625 293.503906 114.359375 293.902344 115.414062 294.695312 C 119.582031 297.671875 120.507812 301.902344 117.265625 306.335938 Z M 117.332031 306.335938 " fill-opacity="1" fill-rule="nonzero"/><path fill="#f9f9f9" d="M 120.972656 324.257812 L 136.246094 331.265625 L 138.230469 326.835938 L 128.445312 322.339844 L 131.023438 316.652344 L 139.816406 320.683594 L 141.867188 316.320312 L 133.007812 312.285156 L 135.320312 307.261719 L 144.644531 311.558594 L 146.695312 307.128906 L 131.949219 300.382812 Z M 120.972656 324.257812 " fill-opacity="1" fill-rule="nonzero"/><path fill="#f9f9f9" d="M 150.804688 335.601562 L 156.902344 309.996094 L 162.691406 311.378906 L 156.59375 336.980469 Z M 150.804688 335.601562 " fill-opacity="1" fill-rule="nonzero"/><path fill="#f9f9f9" d="M 181.941406 321.742188 C 181.613281 325.644531 181.414062 329.214844 181.480469 332.722656 L 181.347656 332.722656 C 180.421875 329.679688 179.164062 326.238281 177.84375 323.332031 L 173.214844 313.210938 L 166.269531 312.617188 L 163.957031 338.804688 L 169.378906 339.269531 L 170.039062 331.398438 C 170.4375 327.101562 170.632812 323.394531 170.832031 319.957031 L 170.964844 319.957031 C 171.957031 323.132812 173.414062 326.636719 174.734375 329.613281 L 179.429688 340.195312 L 185.644531 340.722656 L 187.960938 314.535156 L 182.539062 314.070312 L 181.875 321.742188 Z M 181.941406 321.742188 " fill-opacity="1" fill-rule="nonzero"/><path fill="#f9f9f9" d="M 215.667969 322.46875 L 206.34375 323.859375 L 205.484375 317.90625 L 215.472656 316.453125 L 214.808594 311.625 L 198.871094 313.941406 L 202.640625 339.996094 L 208.527344 339.136719 L 207.007812 328.621094 L 216.398438 327.296875 Z M 215.667969 322.46875 " fill-opacity="1" fill-rule="nonzero"/><path fill="#f9f9f9" d="M 235.441406 319.757812 L 235.441406 319.625 C 237.292969 318.105469 238.816406 315.195312 237.757812 312.023438 C 236.964844 309.707031 235.574219 308.253906 233.722656 307.589844 C 231.476562 306.796875 228.699219 307.0625 224.992188 308.320312 C 222.019531 309.308594 219.371094 310.433594 217.652344 311.359375 L 225.917969 335.960938 L 231.539062 334.109375 L 228.234375 324.320312 L 229.953125 323.726562 C 232.269531 323 233.589844 323.460938 235.308594 326.371094 C 237.097656 329.214844 238.351562 331.066406 239.015625 331.597656 L 244.765625 329.679688 C 243.972656 328.886719 242.121094 325.910156 240.402344 323.332031 C 239.015625 321.214844 237.492188 319.890625 235.507812 319.757812 Z M 229.027344 319.496094 L 226.78125 320.222656 L 224.464844 313.34375 C 224.863281 313.144531 225.589844 312.75 226.976562 312.285156 C 229.558594 311.425781 231.539062 312.089844 232.269531 314.402344 C 232.996094 316.585938 231.804688 318.570312 228.960938 319.496094 Z M 229.027344 319.496094 " fill-opacity="1" fill-rule="nonzero"/><path fill="#f9f9f9" d="M 243.246094 300.847656 L 249.460938 327.628906 L 254.820312 324.519531 L 253.035156 317.710938 L 259.582031 313.941406 L 264.738281 318.765625 L 270.292969 315.527344 L 250.058594 296.878906 L 243.3125 300.78125 Z M 252.371094 306.597656 L 256.605469 310.632812 L 251.578125 313.542969 L 250.125 307.921875 C 249.726562 306.402344 249.066406 304.484375 248.601562 302.894531 L 248.667969 302.894531 C 249.792969 304.019531 251.183594 305.476562 252.371094 306.597656 Z M 252.371094 306.597656 " fill-opacity="1" fill-rule="nonzero"/><path fill="#f9f9f9" d="M 270.625 281.007812 L 275.714844 286.824219 C 278.296875 289.800781 280.742188 292.382812 283.320312 294.761719 L 283.253906 294.761719 C 280.410156 293.371094 277.105469 291.917969 274.0625 290.859375 L 263.613281 287.222656 L 258.390625 291.785156 L 275.714844 311.625 L 279.816406 308.054688 L 274.59375 302.101562 C 271.75 298.863281 269.234375 296.152344 266.855469 293.636719 L 266.855469 293.503906 C 269.898438 294.960938 273.46875 296.414062 276.445312 297.472656 L 287.355469 301.441406 L 292.050781 297.339844 L 274.722656 277.5 L 270.625 281.074219 Z M 270.625 281.007812 " fill-opacity="1" fill-rule="nonzero"/><path fill="#f9f9f9" d="M 302.5 278.230469 C 299.125 282.328125 294.5625 282.59375 290.53125 279.222656 C 286.03125 275.453125 286.164062 270.824219 289.207031 267.183594 C 290.53125 265.597656 291.984375 264.605469 293.175781 263.945312 L 290.332031 259.976562 C 289.207031 260.441406 287.222656 261.828125 285.304688 264.210938 C 280.214844 270.292969 279.949219 278.425781 286.824219 284.179688 C 292.578125 289.007812 299.921875 289.007812 305.738281 282 C 307.789062 279.550781 308.914062 277.304688 309.179688 276.113281 L 305.011719 273.796875 C 304.617188 274.988281 303.625 276.773438 302.5 278.164062 Z M 302.5 278.230469 " fill-opacity="1" fill-rule="nonzero"/><path fill="#f9f9f9" d="M 318.171875 255.082031 L 312.285156 264.144531 L 307.0625 260.703125 L 312.285156 252.636719 L 308.253906 249.992188 L 302.960938 258.125 L 298.398438 255.082031 L 304.019531 246.488281 L 299.921875 243.839844 L 291.058594 257.464844 L 313.078125 271.816406 L 322.273438 257.730469 Z M 318.171875 255.082031 " fill-opacity="1" fill-rule="nonzero"/></svg>